<?xml version="1.0" encoding="utf-8"?>
<!-- Generator: Adobe Illustrator 21.0.0, SVG Export Plug-In . SVG Version: 6.00 Build 0)  -->
<svg version="1.1" id="Layer_1" xmlns="http://www.w3.org/2000/svg" xmlns:xlink="http://www.w3.org/1999/xlink" x="0px" y="0px"
	 viewBox="0 0 284 52.4" style="enable-background:new 0 0 284 52.4;" xml:space="preserve">
<style type="text/css">
	.st0{fill:#941F7F;}
	.st1{clip-path:url(#SVGID_2_);fill:url(#SVGID_3_);}
</style>
<path class="st0" d="M4.6,5c0-0.4,0.1-0.8,0.3-1c0.2-0.2,0.6-0.4,1-0.4h19.3c1.4,0,2.7,0.2,3.9,0.6c1.2,0.4,2.4,0.9,3.4,1.6
	c1,0.7,2,1.5,2.8,2.4c0.8,0.9,1.5,1.9,2.1,3c0.6,1.1,1,2.2,1.3,3.4c0.3,1.2,0.5,2.4,0.5,3.6c0,1.8-0.3,3.6-1,5.3
	c-0.7,1.7-1.6,3.3-2.8,4.6c-1.2,1.3-2.7,2.4-4.3,3.3c-1.7,0.8-3.6,1.3-5.6,1.3h-9.1v14.4c0,0.9-0.5,1.3-1.4,1.3h-9
	c-0.4,0-0.7-0.1-1-0.3c-0.2-0.2-0.4-0.5-0.4-1V5z M27.3,18.2c0-0.6-0.1-1.2-0.3-1.8c-0.2-0.6-0.5-1.1-0.9-1.6
	c-0.4-0.5-0.9-0.9-1.5-1.2c-0.6-0.3-1.2-0.5-1.9-0.5h-6.4v10.1h6.4c0.7,0,1.4-0.1,2-0.4c0.6-0.3,1.1-0.7,1.5-1.1
	c0.4-0.5,0.7-1,0.9-1.6C27.2,19.4,27.3,18.8,27.3,18.2"/>
<path class="st0" d="M57,4.8c0-0.1,0.1-0.2,0.2-0.4c0.1-0.1,0.2-0.3,0.4-0.4c0.2-0.1,0.3-0.2,0.5-0.3c0.2-0.1,0.4-0.1,0.5-0.1h7.7
	c0.3,0,0.6,0.1,0.9,0.3c0.2,0.2,0.4,0.4,0.5,0.6l0.8,1.7L84.3,47c0.2,0.4,0.1,0.7-0.1,1c-0.2,0.3-0.6,0.4-1.1,0.4h-8.7
	c-0.5,0-0.8-0.1-1.1-0.3c-0.3-0.2-0.5-0.5-0.6-0.9c-0.4-1-0.8-2-1.2-3.1c-0.4-1-0.8-2-1.1-3.1h-16c-0.4,1-0.8,2-1.2,3.1
	s-0.8,2-1.2,3.1c-0.3,0.7-0.8,1.1-1.5,1.1h-8.9c-0.4,0-0.7-0.1-1-0.3c-0.3-0.2-0.3-0.5-0.1-0.9L57,4.8z M62.5,17.7
	c-0.4,1-0.8,2.1-1.2,3.3c-0.4,1.2-0.8,2.4-1.2,3.6c-0.4,1.2-0.8,2.4-1.2,3.6c-0.4,1.2-0.8,2.3-1.2,3.3h9.3L62.5,17.7z"/>
<path class="st0" d="M97.7,20.1L105,4.5c0.1-0.2,0.2-0.4,0.3-0.5c0.1-0.1,0.2-0.2,0.2-0.2c0.1,0,0.2-0.1,0.3-0.1
	c0.1,0,0.2,0,0.3-0.1h11.6c0.1,0,0.3,0,0.4,0.1c0.1,0.1,0.1,0.2,0.1,0.3c0,0.2-0.1,0.5-0.4,0.8l-14.3,25.3V47c0,0.9-0.5,1.4-1.4,1.4
	h-9c-0.4,0-0.7-0.1-0.9-0.4c-0.2-0.3-0.3-0.6-0.3-1V30L77.5,4.8c-0.3-0.3-0.4-0.5-0.4-0.8c0-0.1,0-0.2,0.1-0.3
	c0.1-0.1,0.2-0.1,0.3-0.1h11.6c0.1,0,0.3,0.1,0.3,0.1c0.1,0,0.2,0,0.2,0.1C89.9,3.8,90,3.9,90,4c0.1,0.1,0.2,0.3,0.3,0.5L97.7,20.1z
	"/>
<path class="st0" d="M122.4,4.9c0-0.4,0.1-0.7,0.3-0.9c0.2-0.3,0.6-0.4,1-0.4h9.9c0.3,0,0.6,0.1,0.9,0.2c0.3,0.1,0.6,0.4,0.8,0.7
	c2.6,4.1,5.1,8.2,7.6,12.2c2.5,4,5.1,8.1,7.6,12.2V4.7c0.1-0.4,0.2-0.6,0.5-0.8c0.2-0.2,0.5-0.3,0.8-0.3h8.6c0.4,0,0.8,0.1,1.1,0.3
	c0.3,0.2,0.4,0.6,0.4,1v42.3c0,0.4-0.1,0.7-0.4,0.9c-0.2,0.2-0.6,0.3-1,0.3h-9.6c-0.3,0-0.5-0.1-0.7-0.3c-0.2-0.2-0.4-0.4-0.6-0.7
	c-2.7-4.4-5.3-8.8-7.9-13.1c-2.6-4.3-5.3-8.7-8-13.1v25.9c0,0.4-0.1,0.8-0.3,1c-0.2,0.2-0.6,0.3-1.1,0.3h-8.6c-0.5,0-0.8-0.1-1-0.4
	c-0.2-0.3-0.3-0.6-0.3-0.9L122.4,4.9L122.4,4.9z"/>
<path class="st0" d="M232.7,47.7c-0.2-0.3-0.4-0.7-0.6-1.1c-0.2-0.4-0.3-0.7-0.5-1.1c-2.6-6.8-5.2-13.6-7.8-20.3
	c-2.6-6.7-5.2-13.5-7.8-20.3c0-0.1,0-0.2,0-0.3c0-0.1,0-0.2,0-0.2c0-0.6,0.4-0.8,1.1-0.8h9.7c0.8,0,1.3,0.4,1.6,1.1l9.2,27.5
	l8.5-27.5c0.3-0.8,0.8-1.1,1.7-1.1h9.8c0.5,0,0.8,0.1,1,0.3c0.2,0.2,0.3,0.4,0.3,0.7c0,0.2,0,0.3,0,0.3v0.1l-5.4,15.4l4,11.9
	l9.8-27.5c0.3-0.8,0.8-1.1,1.7-1.1h9.5c0.5,0,0.8,0.1,1,0.3c0.2,0.2,0.3,0.4,0.3,0.7c0,0.2,0,0.3,0,0.3v0.1
	c-1.4,3.5-2.8,7.1-4.2,10.6c-1.4,3.5-2.9,7-4.3,10.6c-1.4,3.5-2.9,7-4.3,10.6c-1.4,3.5-2.8,7.1-4.1,10.6c-0.1,0.2-0.3,0.5-0.5,0.7
	c-0.3,0.3-0.6,0.4-1,0.4h-0.1h-7.3c-0.4,0-0.8-0.1-1-0.3c-0.2-0.2-0.4-0.4-0.5-0.7l-4.8-12.6c-0.7,1.8-1.4,3.6-2,5.4
	c-0.7,1.8-1.3,3.6-2,5.4c-0.1,0.3-0.2,0.6-0.3,0.9c-0.1,0.3-0.3,0.6-0.5,0.9c-0.2,0.3-0.4,0.5-0.6,0.7c-0.2,0.2-0.5,0.3-0.8,0.3
	h-0.1H234C233.3,48.4,232.9,48.2,232.7,47.7"/>
<g>
	<g>
		<defs>
			<path id="SVGID_1_" d="M176.2,5.5c-11.4,8.9-13.4,25.4-4.6,36.8c5,6.4,12.5,10.1,20.7,10.1c5.9,0,11.4-1.9,16.1-5.5
				c5.5-4.3,9-10.5,9.9-17.4c0.9-7-1-13.8-5.3-19.3c-1.1-1.4-2.4-2.7-3.7-3.9c-0.3-0.2-0.7-0.4-1-0.4c-0.5,0-1,0.2-1.3,0.7
				l-14.5,19.9l-7.3-8.9c-0.3-0.4-0.7-0.6-1.1-0.6c-0.5,0-0.9,0.2-1.2,0.6l-3.1,4.2c-0.5,0.7-0.5,1.7,0.1,2.3l11.8,14.4
				c0.3,0.4,0.7,0.6,1.1,0.6c0.5,0,0.9-0.2,1.2-0.6l15.1-20.8c4.1,8,2,17.8-5.2,23.4c-3.3,2.6-7.3,4-11.6,4
				c-5.9,0-11.3-2.6-14.9-7.3c-3.1-4-4.4-8.9-3.8-13.9c0.6-5,3.1-9.4,7.1-12.5c3.3-2.6,7.3-4,11.6-4c2.6,0,5.1,0.5,7.4,1.5
				c0.8,0.3,1.7,0.1,2.2-0.6l2.4-3.4c0.3-0.4,0.4-0.8,0.3-1.3c-0.1-0.4-0.4-0.8-0.8-1c-3.6-1.8-7.5-2.6-11.5-2.6
				C186.4,0,180.8,1.9,176.2,5.5"/>
		</defs>
		<clipPath id="SVGID_2_">
			<use xlink:href="#SVGID_1_"  style="overflow:visible;"/>
		</clipPath>
		
			<linearGradient id="SVGID_3_" gradientUnits="userSpaceOnUse" x1="-240.8592" y1="-371.4913" x2="-238.5118" y2="-371.4913" gradientTransform="matrix(-19.3247 19.2017 -19.2017 -19.3247 -11569.9609 -2554.5669)">
			<stop  offset="0" style="stop-color:#E83762"/>
			<stop  offset="1" style="stop-color:#9A1F81"/>
		</linearGradient>
		<polygon class="st1" points="245.3,26.4 190.8,80.6 136.6,26 191.1,-28.2 		"/>
	</g>
</g>
</svg>
